<svg xmlns="http://www.w3.org/2000/svg" width="20" height="20" fill="none"><g clip-path="url(#a)"><path fill="#4588A9" d="M16.667 0H3.333A3.333 3.333 0 0 0 0 3.333v10a3.334 3.334 0 0 0 3.333 3.334H5.75l3.71 3.135a.834.834 0 0 0 1.076 0l3.714-3.135h2.417A3.333 3.333 0 0 0 20 13.333v-10A3.333 3.333 0 0 0 16.667 0M5.833 4.167H10a.833.833 0 0 1 0 1.666H5.833a.833.833 0 1 1 0-1.666m8.334 8.333H5.833a.833.833 0 1 1 0-1.667h8.334a.833.833 0 0 1 0 1.667m0-3.333H5.833a.833.833 0 0 1 0-1.667h8.334a.833.833 0 0 1 0 1.667"/></g><defs><clipPath id="a"><path fill="#fff" d="M0 0h20v20H0z"/></clipPath></defs></svg>