<svg xmlns="http://www.w3.org/2000/svg" width="40" height="40" fill="none"><g clip-path="url(#a)"><g filter="url(#b)"><path fill="#fff" d="M30 40H10a6 6 0 0 1-6-6V6a6 6 0 0 1 6-6h10.515a6 6 0 0 1 4.242 1.757l9.486 9.486A6 6 0 0 1 36 15.485V34a6 6 0 0 1-6 6"/><path stroke="#CDD0D5" stroke-width="1.5" d="M10 .75h10.515a5.25 5.25 0 0 1 3.523 1.358l.189.18 9.485 9.485a5.25 5.25 0 0 1 1.538 3.712V34c0 2.9-2.35 5.25-5.25 5.25H10A5.25 5.25 0 0 1 4.75 34V6C4.75 3.1 7.1.75 10 .75Z"/></g><path stroke="#CDD0D5" stroke-width="1.5" d="M23 1v8a4 4 0 0 0 4 4h8"/><g filter="url(#c)"><mask id="d" fill="#fff"><path d="M0 22a4 4 0 0 1 4-4h22a4 4 0 0 1 4 4v8a4 4 0 0 1-4 4H4a4 4 0 0 1-4-4z"/></mask><path fill="#4588A9" d="M0 22a4 4 0 0 1 4-4h22a4 4 0 0 1 4 4v8a4 4 0 0 1-4 4H4a4 4 0 0 1-4-4z"/><path fill="#000" fill-opacity=".08" d="M-1 22a5 5 0 0 1 5-5h22a5 5 0 0 1 5 5h-2a3 3 0 0 0-3-3H4a3 3 0 0 0-3 3zm31 12H0zM4 34a5 5 0 0 1-5-5v-7a5 5 0 0 1 5-5v2a3 3 0 0 0-3 3v8c0 2.21 1.343 4 3 4m22-17a5 5 0 0 1 5 5v7a5 5 0 0 1-5 5c1.657 0 3-1.79 3-4v-8a3 3 0 0 0-3-3z" mask="url(#d)"/><path fill="#fff" d="M3.886 30v-7.82h5.216v1.074H5.288v2.412h3.314v1.068H5.288V30zm6.628 0v-7.82h1.407V30zm3.416 0v-7.82h1.402v6.746h3.69V30zm6.386 0v-7.82H25.6v1.074h-3.883v2.18H25.1v1.07h-3.383v2.422h3.942V30z"/></g></g><defs><filter id="b" width="36" height="47" x="2" y="-4" color-interpolation-filters="sRGB" filterUnits="userSpaceOnUse"><feFlood flood-opacity="0" result="BackgroundImageFix"/><feColorMatrix in="SourceAlpha" result="hardAlpha" values="0 0 0 0 0 0 0 0 0 0 0 0 0 0 0 0 0 0 127 0"/><feOffset dy="1"/><feGaussianBlur stdDeviation="1"/><feComposite in2="hardAlpha" operator="out"/><feColorMatrix values="0 0 0 0 0.894118 0 0 0 0 0.898039 0 0 0 0 0.905882 0 0 0 0.24 0"/><feBlend in2="BackgroundImageFix" result="effect1_dropShadow_22_947"/><feBlend in="SourceGraphic" in2="effect1_dropShadow_22_947" result="shape"/><feColorMatrix in="SourceAlpha" result="hardAlpha" values="0 0 0 0 0 0 0 0 0 0 0 0 0 0 0 0 0 0 127 0"/><feOffset dy="-4"/><feGaussianBlur stdDeviation="2"/><feComposite in2="hardAlpha" k2="-1" k3="1" operator="arithmetic"/><feColorMatrix values="0 0 0 0 0.813571 0 0 0 0 0.82 0 0 0 0 0.826429 0 0 0 0.32 0"/><feBlend in2="shape" result="effect2_innerShadow_22_947"/></filter><filter id="c" width="30" height="20" x="0" y="18" color-interpolation-filters="sRGB" filterUnits="userSpaceOnUse"><feFlood flood-opacity="0" result="BackgroundImageFix"/><feBlend in="SourceGraphic" in2="BackgroundImageFix" result="shape"/><feColorMatrix in="SourceAlpha" result="hardAlpha" values="0 0 0 0 0 0 0 0 0 0 0 0 0 0 0 0 0 0 127 0"/><feOffset dy="4"/><feGaussianBlur stdDeviation="2"/><feComposite in2="hardAlpha" k2="-1" k3="1" operator="arithmetic"/><feColorMatrix values="0 0 0 0 1 0 0 0 0 1 0 0 0 0 1 0 0 0 0.08 0"/><feBlend in2="shape" result="effect1_innerShadow_22_947"/></filter><clipPath id="a"><path fill="#fff" d="M0 0h40v40H0z"/></clipPath></defs></svg>