<svg xmlns="http://www.w3.org/2000/svg" width="21" height="20" fill="none"><g clip-path="url(#a)"><path fill="#4588A9" d="M16 .833H4.334A4.17 4.17 0 0 0 .167 5v10a4.17 4.17 0 0 0 4.167 4.167H16A4.17 4.17 0 0 0 20.167 15V5A4.17 4.17 0 0 0 16 .833M5.584 15.417a1.25 1.25 0 1 1 0-2.501 1.25 1.25 0 0 1 0 2.5m0-4.167a1.25 1.25 0 1 1 0-2.5 1.25 1.25 0 0 1 0 2.5m0-4.167a1.25 1.25 0 1 1 0-2.5 1.25 1.25 0 0 1 0 2.5M15.167 15H9.334a.834.834 0 0 1 0-1.667h5.833a.834.834 0 0 1 0 1.667m0-4.167H9.334a.834.834 0 0 1 0-1.666h5.833a.834.834 0 0 1 0 1.666m0-4.166H9.334a.834.834 0 0 1 0-1.667h5.833a.834.834 0 0 1 0 1.667"/></g><defs><clipPath id="a"><path fill="#fff" d="M.167 0h20v20h-20z"/></clipPath></defs></svg>