<svg xmlns="http://www.w3.org/2000/svg" width="16" height="16" fill="none"><path fill="#4588A9" d="M8 2a.6.6 0 0 1 .6.6v1.8a.6.6 0 1 1-1.2 0V2.6A.6.6 0 0 1 8 2m0 9a.6.6 0 0 1 .6.6v1.8a.6.6 0 0 1-1.2 0v-1.8A.6.6 0 0 1 8 11m6-3a.6.6 0 0 1-.6.6h-1.8a.6.6 0 0 1 0-1.2h1.8a.6.6 0 0 1 .6.6M5 8a.6.6 0 0 1-.6.6H2.6a.6.6 0 1 1 0-1.2h1.8A.6.6 0 0 1 5 8m7.243 4.243a.6.6 0 0 1-.849 0l-1.272-1.273a.6.6 0 0 1 .848-.848l1.273 1.272a.6.6 0 0 1 0 .849M5.878 5.878a.6.6 0 0 1-.848 0L3.758 4.606a.6.6 0 1 1 .848-.849L5.878 5.03a.6.6 0 0 1 0 .848m-2.12 6.365a.6.6 0 0 1 0-.849l1.273-1.272a.6.6 0 1 1 .848.848l-1.272 1.273a.6.6 0 0 1-.849 0m6.364-6.365a.6.6 0 0 1 0-.848l1.272-1.273a.6.6 0 1 1 .849.849L10.97 5.878a.6.6 0 0 1-.848 0"/></svg>