<svg xmlns="http://www.w3.org/2000/svg" width="20" height="20" fill="none"><g clip-path="url(#a)"><path fill="#4588A9" d="M14.124 1.708A5.8 5.8 0 0 0 10 0a5.8 5.8 0 0 0-4.125 1.708c-2.274 2.274-2.274 5.975.007 8.256l2.079 2.034c.562.55 1.3.825 2.039.825.738 0 1.477-.276 2.04-.825l2.084-2.04a5.8 5.8 0 0 0 1.71-4.126 5.8 5.8 0 0 0-1.71-4.124M10 8.325a2.5 2.5 0 1 1 0-5 2.5 2.5 0 0 1 0 5m-3.806 4.276-.102.732H.523l.383-2.23a3.33 3.33 0 0 1 2.103-2.555c.374.964.95 1.85 1.708 2.608zM.237 15H5.86l-.695 5H3.333c-.981 0-1.909-.43-2.543-1.18a3.33 3.33 0 0 1-.744-2.702zm12.385 0 .696 5h-6.47l.694-5zm6.855-1.667h-5.405l-.121-.874 1.351-1.322a7.5 7.5 0 0 0 1.692-2.587 3.33 3.33 0 0 1 2.1 2.553zm-.267 5.489A3.33 3.33 0 0 1 16.667 20H15l-.696-5h5.458l.191 1.115a3.33 3.33 0 0 1-.743 2.707"/></g><defs><clipPath id="a"><path fill="#fff" d="M0 0h20v20H0z"/></clipPath></defs></svg>