<svg xmlns="http://www.w3.org/2000/svg" width="21" height="20" fill="none"><g clip-path="url(#a)"><path fill="#fff" d="M20.448 7.672a1.06 1.06 0 0 0-.915-.731l-5.773-.524-2.282-5.343a1.063 1.063 0 0 0-1.955.001L7.24 6.417l-5.773.524a1.063 1.063 0 0 0-.604 1.86l4.364 3.827-1.287 5.668a1.063 1.063 0 0 0 1.58 1.148l4.98-2.976 4.978 2.976a1.063 1.063 0 0 0 1.582-1.148l-1.287-5.668 4.363-3.826c.321-.28.444-.724.312-1.13"/></g><defs><clipPath id="a"><path fill="#fff" d="M.5 0h20v20H.5z"/></clipPath></defs></svg>