<svg xmlns="http://www.w3.org/2000/svg" width="43" height="42" fill="none"><path fill="url(#a)" d="M21.5.414a20.586 20.586 0 1 0 0 41.172 20.586 20.586 0 0 0 0-41.172"/><path fill="url(#b)" d="m33.246 17.591-12.38 12.996a3.63 3.63 0 0 1-2.611 1.127h-.016a3.63 3.63 0 0 1-2.606-1.102l-6.567-6.765a3.632 3.632 0 0 1 4.04-5.93c.444.21.841.506 1.167.873l3.936 4.056 9.77-10.262a3.63 3.63 0 0 1 5.138-.13 3.635 3.635 0 0 1 .129 5.137"/><defs><linearGradient id="a" x1="36.059" x2="6.941" y1="35.559" y2="6.441" gradientUnits="userSpaceOnUse"><stop stop-color="#13B601"/><stop offset=".52" stop-color="#13B601"/><stop offset="1" stop-color="#CBF4B4"/></linearGradient><linearGradient id="b" x1="27.148" x2="15.348" y1="24.308" y2="12.508" gradientUnits="userSpaceOnUse"><stop stop-color="#CBF4B4"/><stop offset=".57" stop-color="#fff"/><stop offset="1" stop-color="#fff"/></linearGradient></defs></svg>