<svg xmlns="http://www.w3.org/2000/svg" width="20" height="20" fill="none"><g clip-path="url(#a)"><path fill="#4588A9" d="M13.333 19.428A10 10 0 0 1 10 20a10 10 0 0 1-3.333-.572V17.5A3.337 3.337 0 0 1 10 14.167a3.337 3.337 0 0 1 3.333 3.333zM10 5.833c-.92 0-1.667.748-1.667 1.667 0 .92.748 1.667 1.667 1.667.92 0 1.667-.748 1.667-1.667 0-.92-.748-1.667-1.667-1.667M20 10c0 3.694-2.013 6.926-5 8.657V17.5c0-2.758-2.242-5-5-5s-5 2.242-5 5v1.157A10 10 0 0 1 0 10C0 4.486 4.486 0 10 0s10 4.486 10 10m-6.667-2.5A3.337 3.337 0 0 0 10 4.167 3.337 3.337 0 0 0 6.667 7.5 3.337 3.337 0 0 0 10 10.833 3.337 3.337 0 0 0 13.333 7.5"/></g><defs><clipPath id="a"><path fill="#fff" d="M0 0h20v20H0z"/></clipPath></defs></svg>